<svg xmlns="http://www.w3.org/2000/svg"
     version="1.1" width="512" height="512" x="0" y="0" viewBox="0 0 40.062 40.063"
     style="enable-background:new 0 0 512 512" xml:space="preserve" class=""><g><path d="M9.474 29.988c-.307.36-.748.979-1.362 2.044 0 0-.147 1.111-1.781 1.668 0 0-1.646 1.18-2.069.289 0 0 .408-1.844 1.73-1.391 0 0 1.276-1.536 1.701-2.541a11.58 11.58 0 0 0 1.781-.069zm20.627-6.282-.034.729s.692.113 1.761-.834c.248-.224.448-.56.448-.56s-.85.317-1.15.399a74.71 74.71 0 0 1-1.025.266zm9.306-10.393s.023.461-.669.395c-.307-.03-.873.054-1.019-.617l-.264-.446s-1.53.333-2.574-.174c-1.342-.741-.816-2.595-.816-2.595-.395.759-.477 1.459-.42 2.051-.831.325-2.55 1.247-3.71 3.59-.147.302-.554 1.574.384 1.205.705-.28 1.923-1.152 2.655-1.517.019-.007.087-.039.104-.043.451-.137 1.189-.563 1.511.769.216.893.421 1.875-.159 3.762-.27.882-.586 2.274-1.792 2.794 0 0-1.646.564-1.974.7-.516.217-1.655.319-2.167.188-.235-.059-.194-.104-.896-.344l1.508-1.696s1.022.479 1.712.344c0 0 2.486-.532 2.046-3.701 0 0-.174-.191-.727.432-.987 1.111-3.433 3.419-4.761 3.554 0 0-.201.067-.481.088-1.604-.102-1.463-2.612-1.492-2.524-.521 1.471-.491 2.433-.315 3.035-1.601 1.245-5.202 3.622-8.297 2.641-.045-1.014-.642-2.353-3.277-2.888 0 0 2.363 1.066 2.589 2.607h-.001l.001.004c.014.104.02.207.014.312-.018.234-.101.584-.375 1.005-.041.06-.084.116-.132.179h.009c-.428.576-1.216 1.267-2.643 1.961-3.554 1.264-4.921 1.004-5.266.889a.43.43 0 0 0-.272-.065c-.174.003-1.425.517-2.212 2.37 0 0-1.662 3.915-5.215 3.615 0 0-.192-1.243.86-1.891 0 0 1.261-.168 1.385.037 0 0 .482-.945 1-1.406l1.501-2.6s.531-1.638 1.562-1.453c0 0 .806-.123 1.765-1.428 0 0 .416-.298.067-.969-.337-.654-.605-2.238-.03-3.046 0 0-.976-1.035-2.232 3.396-.245.863-.337 1.904-2.036 3.072-.675.463-1.171 1.376-1.182 3.003 0 0-1.145-1.938.248-3.976 0 0-.25-6.92 6.038-6.981 0 0 .874-2.432 7.433-3.596 1.026-.182 3.976-1.42 3.976-1.42s.136-.224.39-.596c.479-.559 1.261-1.346 2.009-1.529 0 0-.404.002-1.178.369.257-.341.55-.715.877-1.111.463-.382 1.711-1.334 2.672-1.338 0 0-.526-.134-1.676.2a22.62 22.62 0 0 1 2.319-2.197c.308-.226 1.836-1.298 2.899-1.208 0 0-.357-.126-1.155-.032.086-.051.172-.105.258-.155a10.24 10.24 0 0 1 2.217-.968c.188-.058.374-.112.557-.164.591-.102 1.248-.138 1.716.069 0 0-.216-.177-.765-.323a9.536 9.536 0 0 1 3.479-.215s1.249-.679 1.629-1.883c0 0-.042 1.576-.517 2.142 0 0 .751-.313.953-.715 0 0-.066.727-.461 1.135 0 0 1.065.652 1.336 1.737 0 0 1.352 1.787 2.117 2.235.001.004.183 2.08-.638 1.925zM37.4 9.768s.022-.246-.326-.415c-.353-.169-.94-.2-.94-.2s.38.408.731.578c.348.171.535.037.535.037z" fill="#74C5FF" class=""></path></g></svg>